<svg id="Camada_1" data-name="Camada 1" xmlns="http://www.w3.org/2000/svg" xmlns:xlink="http://www.w3.org/1999/xlink" viewBox="0 0 139.55 49.53"><defs><style>.cls-1{fill:#2979ff;}.cls-2{fill:url(#Gradiente_sem_nome_65);}.cls-3{fill:url(#Gradiente_sem_nome_65-2);}.cls-4{fill:url(#Gradiente_sem_nome_65-3);}.cls-5{fill:url(#Gradiente_sem_nome_65-4);}</style><linearGradient id="Gradiente_sem_nome_65" x1="90.44" y1="1913.74" x2="136.83" y2="1867.35" gradientUnits="userSpaceOnUse"><stop offset="0" stop-color="#2979ff"/><stop offset="1" stop-color="#1de9b6"/></linearGradient><linearGradient id="Gradiente_sem_nome_65-2" x1="88.99" y1="1912.29" x2="135.38" y2="1865.9" xlink:href="#Gradiente_sem_nome_65"/><linearGradient id="Gradiente_sem_nome_65-3" x1="124.73" y1="1948.03" x2="171.12" y2="1901.64" xlink:href="#Gradiente_sem_nome_65"/><linearGradient id="Gradiente_sem_nome_65-4" x1="110.69" y1="1933.99" x2="157.08" y2="1887.6" xlink:href="#Gradiente_sem_nome_65"/></defs><title>logo_nix_gateway</title><path class="cls-1" d="M190.59,1900.88q0,2.37-2.54,2.37a2.79,2.79,0,0,1-1.63-.44,1.75,1.75,0,0,1-.75-1.46A0.29,0.29,0,0,1,186,1901h0.22a0.31,0.31,0,0,1,.31.31q0.07,1.11,1.56,1.11a1.44,1.44,0,0,0,1.7-1.54v-0.25a2.65,2.65,0,0,1-1.81.67,2.4,2.4,0,0,1-1.92-.82,3.43,3.43,0,0,1,0-4.14,2.46,2.46,0,0,1,2-.82,2.36,2.36,0,0,1,1.73.71V1896a0.31,0.31,0,0,1,.09-0.22,0.29,0.29,0,0,1,.22-0.1h0.22a0.28,0.28,0,0,1,.31.32v4.93Zm-0.83-2.44a2.29,2.29,0,0,0-.49-1.47,1.55,1.55,0,0,0-1.27-.62,1.62,1.62,0,0,0-1.32.6,2.5,2.5,0,0,0-.06,2.89,1.55,1.55,0,0,0,1.31.62,1.68,1.68,0,0,0,1.35-.55A2.16,2.16,0,0,0,189.76,1898.44Z" transform="translate(-90.57 -1865.57)"/><path class="cls-1" d="M197.55,1901.08a0.27,0.27,0,0,1-.31.31H197a0.27,0.27,0,0,1-.31-0.31v-0.33a2.74,2.74,0,0,1-3.86-.1,3.44,3.44,0,0,1,0-4.12,2.52,2.52,0,0,1,2-.87,2.41,2.41,0,0,1,1.85.74V1896a0.32,0.32,0,0,1,.09-0.22,0.29,0.29,0,0,1,.22-0.1h0.22a0.28,0.28,0,0,1,.31.32v5.08Zm-0.83-2.49a2.26,2.26,0,0,0-.46-1.51,1.73,1.73,0,0,0-1.43-.59,1.63,1.63,0,0,0-1.36.63,2.32,2.32,0,0,0-.46,1.47,2.36,2.36,0,0,0,.41,1.45l0.06,0a1.63,1.63,0,0,0,1.35.59,1.72,1.72,0,0,0,1.37-.59A2.21,2.21,0,0,0,196.72,1898.59Z" transform="translate(-90.57 -1865.57)"/><path class="cls-1" d="M201.52,1896.49a0.35,0.35,0,0,1-.08.23,0.25,0.25,0,0,1-.2.1h-0.6v4.24a0.33,0.33,0,0,1-.09.22,0.25,0.25,0,0,1-.2.1h-0.16a0.27,0.27,0,0,1-.21-0.1,0.33,0.33,0,0,1-.09-0.22v-4.24h-0.59a0.25,0.25,0,0,1-.2-0.1,0.35,0.35,0,0,1-.09-0.23v-0.19a0.27,0.27,0,0,1,.28-0.32h0.59v-1.28a0.27,0.27,0,0,1,.29-0.32h0.18a0.25,0.25,0,0,1,.2.1,0.33,0.33,0,0,1,.09.22V1896h0.6a0.27,0.27,0,0,1,.28.32v0.19Z" transform="translate(-90.57 -1865.57)"/><path class="cls-1" d="M208,1898.61a0.28,0.28,0,0,1-.32.32h-4.28a1.67,1.67,0,0,0,1.86,1.73,2,2,0,0,0,1-.27,1.46,1.46,0,0,0,.7-0.8v0a0.28,0.28,0,0,1,.3-0.24h0.22a0.28,0.28,0,0,1,.32.32v0a2.4,2.4,0,0,1-2.58,1.73,2.5,2.5,0,0,1-2-.79,3.14,3.14,0,0,1-.67-2.11,3,3,0,0,1,.73-2.08,2.57,2.57,0,0,1,2-.86,2.55,2.55,0,0,1,2.71,2.73v0.23Zm-0.9-.49a2,2,0,0,0-.48-1.11,1.7,1.7,0,0,0-1.33-.52,1.83,1.83,0,0,0-1.26.44,1.91,1.91,0,0,0-.61,1.19h3.68Z" transform="translate(-90.57 -1865.57)"/><path class="cls-1" d="M217.16,1896.13a0.45,0.45,0,0,1,0,.15h0l-2,4.95a0.33,0.33,0,0,1-.3.17h-0.29a0.33,0.33,0,0,1-.3-0.17l-1.09-2.44-1,2.44a0.32,0.32,0,0,1-.28.17h-0.27a0.34,0.34,0,0,1-.31-0.17l-2.21-4.94a0.37,0.37,0,0,1,0-.16,0.28,0.28,0,0,1,.33-0.3h0.26a0.36,0.36,0,0,1,.3.18l1.78,4.08,1-2.4-0.64-1.41a0.4,0.4,0,0,1,0-.16,0.28,0.28,0,0,1,.33-0.3h0.27a0.35,0.35,0,0,1,.29.18l1.78,4.08,1.64-4a0.47,0.47,0,0,1,.14-0.17,0.3,0.3,0,0,1,.18-0.09h0.24A0.28,0.28,0,0,1,217.16,1896.13Z" transform="translate(-90.57 -1865.57)"/><path class="cls-1" d="M223.52,1901.08a0.27,0.27,0,0,1-.31.31H223a0.27,0.27,0,0,1-.31-0.31v-0.33a2.74,2.74,0,0,1-3.86-.1,3.44,3.44,0,0,1,0-4.12,2.52,2.52,0,0,1,2-.87,2.41,2.41,0,0,1,1.85.74V1896a0.32,0.32,0,0,1,.09-0.22,0.29,0.29,0,0,1,.22-0.1h0.22a0.28,0.28,0,0,1,.31.32v5.08Zm-0.83-2.49a2.26,2.26,0,0,0-.46-1.51,1.73,1.73,0,0,0-1.43-.59,1.63,1.63,0,0,0-1.36.63,2.32,2.32,0,0,0-.46,1.47,2.36,2.36,0,0,0,.41,1.45l0.06,0a1.63,1.63,0,0,0,1.35.59,1.72,1.72,0,0,0,1.37-.59A2.21,2.21,0,0,0,222.69,1898.59Z" transform="translate(-90.57 -1865.57)"/><path class="cls-1" d="M230.12,1900.88q0,2.37-2.56,2.37a2.6,2.6,0,0,1-1.53-.41h0a1.75,1.75,0,0,1-.81-1.51,0.28,0.28,0,0,1,.31-0.34h0.21a0.3,0.3,0,0,1,.31.3q0.07,1.11,1.54,1.11a1.43,1.43,0,0,0,1.7-1.51,2.56,2.56,0,0,1-3.26,0,2.14,2.14,0,0,1-.59-1.62V1896a0.33,0.33,0,0,1,.32-0.32H226a0.29,0.29,0,0,1,.22.1,0.32,0.32,0,0,1,.09.22v3.34a1.32,1.32,0,0,0,.37,1,1.66,1.66,0,0,0,2.28-.22,2.26,2.26,0,0,0,.38-1.37V1896a0.28,0.28,0,0,1,.31-0.32h0.22a0.29,0.29,0,0,1,.22.1,0.32,0.32,0,0,1,.09.22v4.92Z" transform="translate(-90.57 -1865.57)"/><path class="cls-2" d="M123.18,1890.37a20.5,20.5,0,0,0-1.1-3.8,13.1,13.1,0,0,0-2.6-4.12,13.85,13.85,0,0,0-4.54-3.17A16.77,16.77,0,0,0,108,1878a14.89,14.89,0,0,0-4.85.74,18.73,18.73,0,0,0-3.43,1.53h0v-1.06H90.57v35.88h9.17v-21.51a13.76,13.76,0,0,1,.36-1.87,6,6,0,0,1,1.09-2.15,6.8,6.8,0,0,1,2.38-1.87,9.93,9.93,0,0,1,4.4-.79,6.5,6.5,0,0,1,3.42.75,5.36,5.36,0,0,1,1.86,1.83,6.92,6.92,0,0,1,.84,2.38,16.45,16.45,0,0,1,.22,2.38v20.85h9.17V1893a10.89,10.89,0,0,0-.08-1.25Q123.32,1891.17,123.18,1890.37Z" transform="translate(-90.57 -1865.57)"/><path class="cls-3" d="M130.16,1876.73a5.39,5.39,0,0,0,4-1.67,5.58,5.58,0,0,0-7.89-7.89,5.38,5.38,0,0,0-1.67,3.95A5.64,5.64,0,0,0,130.16,1876.73Z" transform="translate(-90.57 -1865.57)"/><path class="cls-4" d="M174.21,1904.16a5.39,5.39,0,0,0,4-1.67,5.58,5.58,0,0,0-7.89-7.89,5.38,5.38,0,0,0-1.67,3.95A5.64,5.64,0,0,0,174.21,1904.16Z" transform="translate(-90.57 -1865.57)"/><path class="cls-5" d="M169.46,1879.22H158.22l-7.79,10.41-7.73-10.41H125.58v35.88H142.7l7.73-10.35,7.8,10.35h11.23l-13.38-17.94Zm-34.71,4.49,10,13.45-10,13.45v-26.89Z" transform="translate(-90.57 -1865.57)"/></svg>