<?xml version="1.0" encoding="utf-8"?>
<!-- Generated by IcoMoon.io -->
<!DOCTYPE svg PUBLIC "-//W3C//DTD SVG 1.1//EN" "http://www.w3.org/Graphics/SVG/1.1/DTD/svg11.dtd">
<svg version="1.1" xmlns="http://www.w3.org/2000/svg" xmlns:xlink="http://www.w3.org/1999/xlink" width="100" height="100" viewBox="0 0 100 100">
<g id="icomoon-ignore">
</g>
<path fill="#000" d="M2067.847 730.011q0 48.998-52.513 48.998c-0.753 0.035-1.635 0.055-2.522 0.055-11.581 0-22.365-3.413-31.401-9.288-9.202-6.487-15.286-17.312-15.286-29.557 0-0.173 0.001-0.345 0.004-0.517-0.094-0.371-0.147-0.826-0.147-1.294 0-3.311 2.684-5.996 5.996-5.996 0.344 0 0.681 0.029 1.009 0.085l4.513-0.005c3.54 0 6.409 2.869 6.409 6.409q1.447 22.949 32.252 22.949c1.65 0.324 3.547 0.51 5.487 0.51 16.442 0 29.771-13.329 29.771-29.771 0-0.907-0.041-1.805-0.12-2.692l0.008-5.054c-9.634 8.603-22.414 13.861-36.423 13.861-0.351 0-0.7-0.003-1.049-0.010-0.634 0.035-1.438 0.054-2.247 0.054-14.892 0-28.252-6.56-37.346-16.949-9.018-11.808-14.419-26.7-14.419-42.853s5.401-31.045 14.496-42.968c9.232-10.317 22.788-16.89 37.88-16.89 1.176 0 2.343 0.040 3.499 0.118 0.104-0.014 0.411-0.016 0.718-0.016 13.669 0 26.025 5.621 34.883 14.678l0.009-4.746c0-0.010 0-0.021 0-0.033 0-1.762 0.711-3.357 1.861-4.516 1.105-1.269 2.724-2.067 4.529-2.067 0.007 0 0.013 0 0.020 0h4.547c0.206-0.026 0.444-0.041 0.686-0.041 3.197 0 5.789 2.592 5.789 5.789 0 0.306-0.024 0.607-0.070 0.9l0.004 101.892zM2050.688 679.566c0.008-0.33 0.013-0.718 0.013-1.107 0-11.101-3.821-21.31-10.219-29.383-5.833-7.723-15.115-12.726-25.565-12.726-0.217 0-0.433 0.002-0.648 0.006-0.341-0.015-0.779-0.024-1.219-0.024-10.488 0-19.85 4.821-25.991 12.367-6.383 8.542-10.19 19.232-10.19 30.811 0 10.825 3.328 20.872 9.016 29.176 5.793 7.66 15.084 12.673 25.546 12.673 0.501 0 0.999-0.011 1.494-0.034 0.572 0.045 1.322 0.069 2.078 0.069 10.205 0 19.382-4.401 25.736-11.408 6.241-7.641 10.007-17.464 10.007-28.168 0-0.792-0.021-1.58-0.061-2.362z"></path>
<path fill="#000" d="M2211.741 734.146c0.046 0.271 0.073 0.582 0.073 0.9 0 3.083-2.499 5.582-5.582 5.582-0.318 0-0.629-0.027-0.933-0.078l-4.929 0.005c-0.271 0.046-0.582 0.073-0.9 0.073-3.083 0-5.582-2.499-5.582-5.582 0-0.318 0.027-0.629 0.078-0.933l-0.005-6.79c-10.119 9.556-23.804 15.431-38.86 15.431-16.089 0-30.611-6.707-40.923-17.478-8.862-11.743-14.182-26.555-14.182-42.61s5.32-30.867 14.293-42.77c9.476-10.885 23.565-17.842 39.279-17.842 0.682 0 1.361 0.013 2.036 0.039 0.582-0.036 1.377-0.055 2.177-0.055 14.132 0 26.889 5.883 35.957 15.334l0.016-8.253c0.014-1.77 0.721-3.371 1.862-4.55 1.104-1.268 2.723-2.066 4.528-2.066 0.007 0 0.013 0 0.020 0h4.547c0.206-0.026 0.444-0.041 0.686-0.041 3.197 0 5.789 2.592 5.789 5.789 0 0.306-0.024 0.607-0.070 0.9l0.004 104.993zM2194.581 682.667c0.055-0.852 0.087-1.848 0.087-2.85 0-10.718-3.609-20.594-9.678-28.477-6.511-7.439-16.153-12.181-26.903-12.181-0.908 0-1.808 0.034-2.699 0.1-0.323-0.028-0.84-0.040-1.361-0.040-10.8 0-20.414 5.081-26.581 12.983-6.013 7.978-9.596 17.962-9.596 28.783 0 0.592 0.011 1.182 0.032 1.768-0.040 0.634-0.062 1.476-0.062 2.323 0 10.301 3.193 19.857 8.642 27.732l1.134-0.162c6.226 7.507 15.556 12.252 25.994 12.252 0.674 0 1.344-0.020 2.008-0.059 0.352 0.024 0.873 0.035 1.396 0.035 10.692 0 20.281-4.719 26.8-12.187 6.724-7.937 10.79-18.237 10.79-29.488 0-0.187-0.001-0.374-0.003-0.561z"></path>
<path fill="#000" d="M2293.818 639.251c0.001 0.044 0.002 0.097 0.002 0.149 0 1.756-0.625 3.365-1.665 4.618-0.943 1.249-2.44 2.056-4.125 2.056h-12.405v87.659c-0.036 1.766-0.738 3.361-1.864 4.552-0.95 1.258-2.447 2.064-4.132 2.064h-3.308c-0.001 0-0.003 0-0.005 0-1.746 0-3.305-0.802-4.329-2.057-1.131-1.197-1.832-2.792-1.869-4.551v-87.666h-12.198c-1.685 0-3.182-0.806-4.125-2.054-1.144-1.268-1.847-2.934-1.87-4.763v-3.933c-0.062-0.313-0.098-0.674-0.098-1.042 0-3.083 2.499-5.582 5.582-5.582 0.107 0 0.214 0.003 0.32 0.009l12.183-0.001v-26.463c-0.064-0.318-0.101-0.683-0.101-1.057 0-3.083 2.499-5.582 5.582-5.582 0.181 0 0.36 0.009 0.537 0.026l3.699-0.002c1.685 0 3.182 0.806 4.125 2.054 1.132 1.2 1.834 2.795 1.87 4.554v26.884h12.405c0.091-0.005 0.198-0.008 0.305-0.008 3.083 0 5.582 2.499 5.582 5.582 0 0.369-0.036 0.729-0.104 1.077l0.006 3.893z"></path>
<path fill="#000" d="M2427.788 683.080c0.044 0.27 0.070 0.58 0.070 0.897 0 3.197-2.592 5.789-5.789 5.789-0.317 0-0.627-0.025-0.93-0.074l-88.453 0.004c-0.020 0.438-0.031 0.952-0.031 1.468 0 19.068 15.458 34.526 34.526 34.526 1.395 0 2.771-0.083 4.123-0.244 7.453 0.002 14.583-2.069 20.705-5.672 6.508-3.429 11.623-9.215 14.211-16.225l0.068-0.209c0.41-2.831 2.82-4.981 5.732-4.981 0.165 0 0.329 0.007 0.491 0.021l4.527-0.001c0.27-0.044 0.58-0.070 0.897-0.070 3.197 0 5.789 2.592 5.789 5.789 0 0.317-0.025 0.627-0.074 0.93l0.004-0.033c-6.093 20.996-25.153 36.084-47.737 36.084-1.974 0-3.921-0.115-5.835-0.34-0.824 0.099-2.057 0.143-3.299 0.143-14.915 0-28.355-6.318-37.789-16.423-8.718-10.972-13.97-24.987-13.97-40.227 0-1.205 0.033-2.402 0.098-3.591-0.037-0.55-0.054-1.389-0.054-2.233 0-15.564 5.733-29.79 15.203-40.68 9.712-10.872 23.867-17.73 39.623-17.73 0.584 0 1.166 0.009 1.746 0.028 0.947-0.074 2.15-0.115 3.363-0.115 29.116 0 52.72 23.603 52.72 52.72 0 1.349-0.051 2.687-0.15 4.011l0.011 4.579zM2409.181 672.95c-0.923-8.869-4.523-16.758-9.966-22.998-6.365-6.622-15.359-10.766-25.321-10.766-0.751 0-1.496 0.024-2.235 0.070-0.319-0.022-0.813-0.031-1.309-0.031-9.434 0-18.062 3.453-24.688 9.164-6.774 6.198-11.388 14.754-12.544 24.373l76.063 0.188z"></path>
<path fill="#000" d="M2617.165 631.808c0.083 0.466 0.13 1.003 0.13 1.551s-0.047 1.084-0.138 1.606l0.008-0.056-41.349 102.338c-1.187 2.114-3.414 3.519-5.969 3.519-0.082 0-0.164-0.001-0.245-0.004h-5.984c-0.070 0.003-0.151 0.004-0.233 0.004-2.555 0-4.783-1.405-5.951-3.484l-22.553-50.48-20.674 50.445c-1.126 2.091-3.291 3.493-5.786 3.515h-5.585c-0.095 0.005-0.206 0.007-0.317 0.007-2.591 0-4.855-1.402-6.074-3.488l-45.708-102.165c-0.115-0.497-0.181-1.068-0.181-1.654s0.066-1.157 0.191-1.705c-0.024-0.102-0.032-0.28-0.032-0.459 0-3.197 2.592-5.789 5.789-5.789 0.373 0 0.739 0.035 1.092 0.103l5.339-0.006c2.646 0.090 4.933 1.548 6.183 3.686l36.819 84.386 20.674-49.618-13.232-29.151c-0.106-0.497-0.167-1.068-0.167-1.654s0.061-1.157 0.177-1.708c-0.024-0.099-0.032-0.277-0.032-0.457 0-3.197 2.592-5.789 5.789-5.789 0.373 0 0.739 0.035 1.092 0.103l5.546-0.006c2.578 0.123 4.79 1.577 5.977 3.685l36.819 84.388 33.906-82.697c0.697-1.413 1.675-2.59 2.87-3.497 0.984-1.016 2.272-1.693 3.715-1.875l4.992-0.003c1.929 0.966 3.23 2.927 3.23 5.193 0 0.431-0.047 0.851-0.136 1.255z"></path>
<path fill="#000" d="M2748.653 734.146c0.046 0.271 0.073 0.582 0.073 0.9 0 3.083-2.499 5.582-5.582 5.582-0.318 0-0.629-0.027-0.933-0.078l-4.309 0.005c-0.271 0.046-0.582 0.073-0.9 0.073-3.083 0-5.582-2.499-5.582-5.582 0-0.318 0.027-0.629 0.078-0.933l-0.005-6.79c-10.119 9.556-23.804 15.431-38.86 15.431-16.089 0-30.611-6.707-40.923-17.478-8.862-11.743-14.182-26.555-14.182-42.61s5.32-30.867 14.293-42.77c9.476-10.885 23.565-17.842 39.279-17.842 0.682 0 1.361 0.013 2.036 0.039 0.582-0.036 1.377-0.055 2.177-0.055 14.132 0 26.889 5.883 35.957 15.334l0.016-8.253c0.014-1.77 0.721-3.371 1.862-4.55 1.104-1.268 2.723-2.066 4.528-2.066 0.007 0 0.013 0 0.020 0h4.547c0.206-0.026 0.444-0.041 0.686-0.041 3.197 0 5.789 2.592 5.789 5.789 0 0.306-0.024 0.607-0.070 0.9l0.004 104.993zM2731.494 682.667c0.055-0.852 0.087-1.848 0.087-2.85 0-10.718-3.609-20.594-9.678-28.477-6.511-7.439-16.153-12.181-26.903-12.181-0.908 0-1.808 0.034-2.699 0.1-0.323-0.028-0.84-0.040-1.361-0.040-10.8 0-20.414 5.081-26.581 12.983-6.013 7.978-9.596 17.962-9.596 28.783 0 0.592 0.011 1.182 0.032 1.768-0.040 0.634-0.062 1.476-0.062 2.323 0 10.301 3.193 19.857 8.642 27.732l1.134-0.162c6.226 7.507 15.556 12.252 25.994 12.252 0.674 0 1.344-0.020 2.008-0.059 0.352 0.024 0.873 0.035 1.396 0.035 10.692 0 20.281-4.719 26.8-12.187 6.724-7.937 10.79-18.237 10.79-29.488 0-0.187-0.001-0.374-0.003-0.561z"></path>
<path fill="#000" d="M2885.104 730.011q0 48.998-52.926 48.998c-0.765 0.039-1.662 0.061-2.564 0.061-10.798 0-20.853-3.184-29.276-8.664l0.208 0.127c-10.136-6.525-16.753-17.751-16.753-30.522 0-0.245 0.002-0.489 0.007-0.733-0.093-0.352-0.146-0.797-0.146-1.255 0-3.197 2.592-5.789 5.789-5.789 0.27 0 0.536 0.019 0.796 0.054l4.311-0.003c0.062-0.002 0.134-0.003 0.207-0.003 3.425 0 6.202 2.777 6.202 6.202 0 0.001 0 0.002 0 0.004q1.447 22.948 31.838 22.948c1.703 0.348 3.66 0.548 5.664 0.548 16.328 0 29.564-13.236 29.564-29.564 0-0.775-0.030-1.543-0.088-2.302-9.073 7.64-20.849 12.216-33.693 12.216s-24.62-4.575-33.786-12.185c-7.521-7.863-12.205-18.651-12.205-30.534 0-1.016 0.034-2.025 0.102-3.024l-0.007-67.47c0.111-3.608 3.008-6.505 6.605-6.616h4.972c0.006 0 0.012 0 0.019 0 1.805 0 3.424 0.798 4.523 2.060 1.146 1.184 1.853 2.786 1.867 4.553v69.055c-0.033 0.5-0.051 1.085-0.051 1.674 0 7.39 2.937 14.093 7.707 19.007 5.766 4.555 13.149 7.311 21.176 7.311 10.348 0 19.627-4.58 25.919-11.824 4.992-7.346 7.949-16.357 7.949-26.059 0-0.812-0.021-1.618-0.062-2.42l0.005-56.742c-0.042-0.261-0.065-0.561-0.065-0.868 0-3.197 2.592-5.789 5.789-5.789 0.242 0 0.48 0.015 0.714 0.044l4.52-0.003c0.006 0 0.012 0 0.019 0 1.805 0 3.424 0.798 4.523 2.060 1.146 1.184 1.853 2.786 1.867 4.553v101.721z"></path>
<path fill="#000" d="M674.19 512.724c-5.682-29.928-13.55-56.265-23.761-81.4-12.183-30.106-30.351-58.364-52.88-82.499-25.86-27.165-57.051-49.282-91.884-64.658-41.184-17.552-86.974-27.336-135.049-27.336-3.609 0-7.204 0.055-10.786 0.165-0.766-0.032-2.288-0.043-3.813-0.043-34.301 0-67.291 5.61-98.104 15.962-25.099 8.476-48.536 19.176-70.593 31.992l1.851-0.993v-21.915h-189.17v741.795h189.584v-444.705c1.821-14.794 4.431-27.903 7.906-40.655 4.291-15.069 12.039-29.919 22.263-42.703 13.007-15.971 29.436-29.026 48.172-38.049 24.677-10.848 52.463-16.949 81.674-16.949 3.565 0 7.108 0.091 10.629 0.27 1.786-0.158 4.452-0.237 7.137-0.237 23.084 0 44.809 5.821 63.787 16.074 15.139 9.075 28.085 21.823 37.468 37.006 8.592 14.654 14.675 31.216 17.531 48.859 2.665 15.386 4.305 32.375 4.653 49.681l0.005 431.406h189.584v-456.696c-0.060-9.173-0.659-18.141-1.768-26.95q-1.54-10.884-4.435-27.423z"></path>
<path fill="#000" d="M818.497 230.726c0.607 0.012 1.323 0.019 2.040 0.019 31.709 0 60.324-13.244 80.616-34.501 20.037-20.76 32.356-48.999 32.356-80.116 0-63.713-51.65-115.363-115.363-115.363-31.117 0-59.357 12.32-80.107 32.348-21.258 20.267-34.498 48.849-34.498 80.524 0 0.389 0.002 0.778 0.006 1.166 0.342 63.497 51.478 114.996 114.861 115.923z"></path>
<path fill="#000" d="M1729.202 797.823c0.607 0.012 1.323 0.019 2.040 0.019 31.709 0 60.324-13.244 80.616-34.501 20.037-20.76 32.356-48.999 32.356-80.116 0-63.713-51.65-115.363-115.363-115.363-31.117 0-59.357 12.32-80.107 32.348-21.258 20.267-34.498 48.849-34.498 80.524 0 0.389 0.002 0.778 0.006 1.166 0.342 63.497 51.478 114.996 114.861 115.923z"></path>
<path fill="#000" d="M1630.999 282.205h-232.38l-161.053 215.22-159.813-215.22h-353.945v741.795h353.945l159.813-213.979 161.26 213.979h232.173l-276.623-370.898zM913.392 375.033l206.743 278.070-206.743 278.070v-555.933z"></path>
</svg>
