<?xml version="1.0" ?><!DOCTYPE svg  PUBLIC '-//W3C//DTD SVG 1.1//EN'  'http://www.w3.org/Graphics/SVG/1.1/DTD/svg11.dtd'><svg enable-background="new 0 0 30 30" height="30px" id="Capa_1" version="1.1" viewBox="0 0 30 30" width="30px" xml:space="preserve" xmlns="http://www.w3.org/2000/svg" xmlns:xlink="http://www.w3.org/1999/xlink"><path d="M1.2,24.8c0.1,0,0.2,0,0.3-0.1c0.4-0.2,0.5-0.6,0.3-1c-0.2-0.4-0.3-0.8-0.3-1.2v-7h9.7l4.9-4.9H1.6V8.9  c0-1.4,1.2-2.6,2.6-2.6h16.1C20.7,6.3,21,6,21,5.6s-0.3-0.8-0.8-0.8H4.2C2,4.8,0.1,6.7,0.1,8.9v13.6c0,0.7,0.2,1.3,0.5,1.9  C0.7,24.6,1,24.8,1.2,24.8z M29.1,0.9c-0.3-0.3-0.8-0.3-1.1,0L0.9,28c-0.3,0.3-0.3,0.8,0,1.1c0.1,0.1,0.3,0.2,0.5,0.2  s0.4-0.1,0.5-0.2L29.1,2C29.4,1.7,29.4,1.2,29.1,0.9z M28.4,6c-0.3-0.3-0.8-0.3-1.1,0c-0.3,0.3-0.3,0.8,0,1.1  c0.5,0.5,0.8,1.2,0.8,1.9v1.6h-5.4l-4.9,4.9h10.3v7c0,1.4-1.2,2.6-2.6,2.6H8.9c-0.4,0-0.8,0.3-0.8,0.8s0.3,0.8,0.8,0.8h16.7  c2.3,0,4.1-1.8,4.1-4.1V8.9C29.7,7.8,29.2,6.8,28.4,6z" fill="#262324"/></svg>